# xmcd CD database file
# Copyright (C) 1995-1998 Ti Kan
#
# Track frame offsets:
#	150
#	22763
#	36283
#	53422
#	67238
#	80956
#	93948
#	109473
#	125099
#	138050
#	154283
#	169734
#	183668
#	201430
#
# Disc length: 2864 seconds
#
# Revision: 2
# Processed by: cddbd v1.4PL0 Copyright (c) Steve Scherf et al.
# Submitted via: CDex 1.30Release
#
DISCID=c90b2e0e
DTITLE=ISLA GRANT - THE BEAUTY OF MY HOME(New Album--Oct' 2003)
DYEAR=2003
DGENRE=Country
TTITLE0=LIVING IN MY MIND
TTITLE1=HOW LUCKY I MUST BE
TTITLE2=THE BEAUTY OF MY HOME
TTITLE3=MY HOME IN MONEYMORE
TTITLE4=GRANDPA'S FIDDLE
TTITLE5=THAT'S THE DAY(I'LL STOP LOVING YOU)
TTITLE6=SPREAD A LITTLE HAPPINESS
TTITLE7=YOU'RE THE BESTFRIEND
TTITLE8=COME ON IN
TTITLE9=TWINKLE,TWINKLE LITTLE STAR
TTITLE10=AN ANGELS WING
TTITLE11=AN ACCORDION STARTED TO PLAY
TTITLE12=CALL ON ME
TTITLE13=MANY REASONS
EXTD=YEAR: 2003 ID3G:   2
EXTT0=
EXTT1=
EXTT2=
EXTT3=
EXTT4=
EXTT5=
EXTT6=
EXTT7=
EXTT8=
EXTT9=
EXTT10=
EXTT11=
EXTT12=
EXTT13=
PLAYORDER=
